:SAMPLES-PER-SECOND 30
:FRAME-RANGE 1-3549
:FULLY-SPECIFIED
:DEGREES
3106
root  51.6052 38.4598 -7.32251 174.116 63.7337 172.229
RightUpLeg  -22.9314 -1.80671 -5.23561
RightLeg  0.824429 -0.323658 -1.14696
RightFoot  -9.25809 -0.233709 9.36547
RightToes  1.218e-010 1.26228e-014 -6.01869e-014
Spine  -7.50055 -2.71001 -4.87343
Spine1  9.55905 -3.23801 2.7565
HEad  22.8535 31.0051 1.24107
LeftShoulder1  1.34772 -2.49234 -16.7985
LeftArm  22.6524 -9.54318 -51.3256
LeftForeArm  35.406 -14.1387 -9.67279
LeftHand  -0.00847826 5.87397 4.42753
RightShoulder  0.720674 -1.28417 29.5098
RightArm  -25.8969 -14.8518 36.2759
RightForeArm  83.5243 -4.64014 2.91086
RightHand  0.476923 -10.162 -12.356
LeftUpLeg  7.28032 2.70754 -4.36998
LeftLeg  17.0674 2.70697 1.81629
LeftFoot  -20.5035 -0.194371 -3.95896
LeftToes  -1.43952e-010 7.51141e-011 -1.22592e-011
3107
root  52.9741 38.3441 -7.77336 175.108 63.7489 173.557
RightUpLeg  -24.2128 -0.658695 -4.51262
RightLeg  6.62537 0.316229 -0.922271
RightFoot  -4.96536 -0.397 6.5125
RightToes  1.218e-010 1.26228e-014 -6.01869e-014
Spine  -7.19045 -2.50732 -3.52549
Spine1  9.70836 -3.22854 2.87946
HEad  23.0341 31.8105 0.496343
LeftShoulder1  1.3298 -2.33967 -17.1361
LeftArm  22.5888 -9.20407 -50.8405
LeftForeArm  34.901 -14.7067 -9.24828
LeftHand  -0.0104224 5.87244 4.41869
RightShoulder  0.709942 -1.31707 29.5561
RightArm  -25.9622 -14.9297 36.2365
RightForeArm  83.1509 -4.6524 2.88577
RightHand  0.474289 -10.1088 -12.4237
LeftUpLeg  9.21216 1.29058 -3.6467
LeftLeg  18.4135 3.36872 2.12004
LeftFoot  -20.518 -0.408106 -6.6116
LeftToes  -1.43952e-010 7.51141e-011 -1.22592e-011
3108
root  54.3487 38.4125 -8.22423 177.682 63.6829 176.699
RightUpLeg  -24.3911 2.42148 -3.24274
RightLeg  10.4001 -1.80459 -1.99056
RightFoot  1.71878 -0.703312 6.24027
RightToes  1.218e-010 1.26228e-014 -6.01869e-014
Spine  -7.15799 -2.22271 -1.15342
Spine1  10.3006 -3.32227 3.51809
HEad  23.1957 32.7934 -0.1286
LeftShoulder1  1.33168 -2.20435 -17.8003
LeftArm  22.3694 -7.7053 -50.3495
LeftForeArm  34.4243 -15.2094 -8.8635
LeftHand  -0.00484679 5.8366 4.85081
RightShoulder  0.710169 -1.32954 29.7992
RightArm  -26.0043 -13.993 36.1115
RightForeArm  83.318 -4.63652 2.83483
RightHand  0.484095 -10.1613 -12.5994
LeftUpLeg  10.6345 -1.41192 -2.39885
LeftLeg  20.5216 5.29168 2.52443
LeftFoot  -18.6088 -0.545824 -10.325
LeftToes  -1.43952e-010 7.51141e-011 -1.22592e-011
3109
root  55.7406 38.3643 -8.64791 -179.165 63.6932 -179.659
RightUpLeg  -24.7893 3.55424 -1.88152
RightLeg  15.1001 -2.93885 -1.52193
RightFoot  3.35488 -0.92421 7.33521
RightToes  1.218e-010 1.26228e-014 -6.01869e-014
Spine  -6.99401 -2.00493 1.34991
Spine1  10.4142 -3.19643 3.7151
HEad  23.7534 33.581 -0.33264
LeftShoulder1  1.30222 -1.8914 -18.7595
LeftArm  21.92 -5.61672 -49.9817
LeftForeArm  34.1992 -15.189 -8.87299
LeftHand  0.00178027 5.85641 5.34075
RightShoulder  0.782252 -1.14848 30.1647
RightArm  -26.6355 -11.8784 36.1984
RightForeArm  84.0004 -4.53328 2.39835
RightHand  0.510239 -10.1734 -13.0937
LeftUpLeg  9.26997 -0.264157 0.556214
LeftLeg  27.3559 3.53653 2.3292
LeftFoot  -15.5457 -0.430175 -14.1855
LeftToes  -1.43952e-010 7.51141e-011 -1.22592e-011
3110
root  57.0834 38.2881 -9.04162 -176.109 64.1692 -176.199
RightUpLeg  -24.7797 1.8145 0.560483
RightLeg  19.1006 -1.2544 -0.702908
RightFoot  2.65203 -0.811685 6.75373
RightToes  1.218e-010 1.26228e-014 -6.01869e-014
Spine  -6.62311 -1.52155 3.63974
Spine1  10.3441 -2.68474 3.8581
HEad  24.3061 34.0066 0.181385
LeftShoulder1  1.28712 -1.81278 -18.856
LeftArm  19.7128 -2.58696 -50.6078
LeftForeArm  35.3441 -14.5877 -9.16474
LeftHand  -0.000756631 5.96345 5.34789
RightShoulder  0.937308 -0.708065 30.0357
RightArm  -27.7225 -9.39322 37.151
RightForeArm  84.4955 -4.39544 1.70938
RightHand  0.493322 -10.1675 -12.72
LeftUpLeg  5.56673 2.14003 3.7751
LeftLeg  37.3644 2.50402 2.42372
LeftFoot  -8.57214 0.449849 -16.4014
LeftToes  -1.43952e-010 7.51141e-011 -1.22592e-011
3111
root  58.2676 38.2389 -9.37037 -173.57 63.4971 -173.337
RightUpLeg  -24.2819 1.4808 2.48586
RightLeg  22.1218 -1.47077 -0.880673
RightFoot  0.552083 -0.491736 4.75336
RightToes  1.218e-010 1.26228e-014 -6.01869e-014
Spine  -5.99604 -1.41606 5.20571
Spine1  10.2765 -2.57626 4.57337
HEad  24.0087 34.104 0.946126
LeftShoulder1  1.28232 -1.84875 -18.5664
LeftArm  17.6631 0.0543104 -51.4926
LeftForeArm  37.113 -13.4937 -9.77483
LeftHand  -0.00764227 5.83693 4.8422
RightShoulder  1.09363 -0.26062 29.904
RightArm  -28.1215 -6.55584 38.4503
RightForeArm  84.0262 -4.37752 1.48004
RightHand  0.450765 -9.98304 -12.1762
LeftUpLeg  -0.22104 2.69576 6.08234
LeftLeg  48.4182 2.70471 3.69691
LeftFoot  1.29058 1.76712 -15.951
LeftToes  -1.43952e-010 7.51141e-011 -1.22592e-011
3112
root  59.3801 38.2408 -9.70227 -171.481 63.1346 -170.498
RightUpLeg  -22.7042 2.97392 4.16597
RightLeg  23.926 -3.03159 -1.70577
RightFoot  -1.85942 -0.332169 3.84986
RightToes  1.218e-010 1.26228e-014 -6.01869e-014
Spine  -5.03015 -1.0699 7.18714
Spine1  10.4068 -2.06 4.80936
HEad  23.4156 34.1367 1.93837
LeftShoulder1  1.23841 -1.63768 -18.753
LeftArm  16.2878 1.83217 -51.9221
LeftForeArm  39.2439 -11.9822 -10.6586
LeftHand  -0.0176446 5.75105 3.94593
RightShoulder  1.19734 -0.00332738 30.2747
RightArm  -27.5198 -2.41717 39.305
RightForeArm  83.273 -4.4635 1.7926
RightHand  0.459199 -9.83372 -12.7624
LeftUpLeg  -5.82146 2.84461 7.5336
LeftLeg  57.2459 3.61988 6.5692
LeftFoot  13.3463 2.2913 -10.8215
LeftToes  -1.43952e-010 7.51141e-011 -1.22592e-011
3113
root  60.5381 38.4029 -10.0927 -171.298 62.632 -169.725
RightUpLeg  -20.1095 2.02102 5.10091
RightLeg  24.1892 -2.5706 -1.51339
RightFoot  -4.1741 -0.228166 3.18785
RightToes  1.218e-010 1.26228e-014 -6.01869e-014
Spine  -4.48024 -0.72277 8.03023
Spine1  10.35 -1.58018 4.75439
HEad  23.1005 34.3372 3.02315
LeftShoulder1  1.19415 -1.41372 -19.0226
LeftArm  13.5695 3.15992 -52.3453
LeftForeArm  42.2106 -9.03351 -12.0535
LeftHand  -0.015159 5.75878 3.76953
RightShoulder  1.31322 0.307135 30.3885
RightArm  -26.8802 1.95322 40.3959
RightForeArm  82.9463 -4.52276 2.05915
RightHand  0.566872 -10.0499 -14.7464
LeftUpLeg  -10.6979 2.75996 7.6443
LeftLeg  63.5993 3.93761 9.22257
LeftFoot  12.1324 1.66132 -8.34475
LeftToes  -1.43952e-010 7.51141e-011 -1.22592e-011
3114
root  61.675 38.5993 -10.5334 -171.894 62.4871 -170.121
RightUpLeg  -17.5445 0.705251 5.27228
RightLeg  23.9 -1.58816 -1.03059
RightFoot  -6.20981 -0.170402 2.85937
RightToes  1.218e-010 1.26228e-014 -6.01869e-014
Spine  -4.30925 -0.169793 8.64644
Spine1  10.1179 -0.830544 4.22135
HEad  23.2301 34.8776 4.19727
LeftShoulder1  1.14258 -1.21816 -18.9719
LeftArm  8.98682 4.97392 -53.0884
LeftForeArm  46.1308 -5.66177 -12.9226
LeftHand  -0.0134497 5.86845 3.51959
RightShoulder  1.47955 0.829899 29.8296
RightArm  -27.0006 5.87242 42.1271
RightForeArm  83.1633 -4.46555 1.77608
RightHand  0.651406 -10.1483 -16.4025
LeftUpLeg  -15.1277 2.99627 6.9264
LeftLeg  66.6128 3.4627 9.45807
LeftFoot  5.69524 1.09066 -7.50671
LeftToes  -1.43952e-010 7.51141e-011 -1.22592e-011
3115
root  62.8066 38.7907 -11.0095 -172.902 62.8674 -170.94
RightUpLeg  -14.7837 -0.930668 5.0258
RightLeg  23.2724 0.0246798 -0.202561
RightFoot  -7.93766 -0.115611 2.07683
RightToes  1.218e-010 1.26228e-014 -6.01869e-014
Spine  -3.88133 0.603661 9.31906
Spine1  9.53184 0.226953 3.23237
HEad  23.102 35.8072 4.79319
LeftShoulder1  1.06423 -0.896845 -19.0421
LeftArm  5.63163 7.34056 -53.4459
LeftForeArm  48.5985 -3.61397 -13.0843
LeftHand  -0.0117997 6.12158 2.88124
RightShoulder  1.64381 1.40598 28.9418
RightArm  -25.9482 9.19447 43.8272
RightForeArm  81.9386 -4.60512 2.28676
RightHand  0.596573 -9.72673 -16.5119
LeftUpLeg  -18.7007 3.00472 5.6019
LeftLeg  66.0933 3.24788 8.6972
LeftFoot  3.20292 0.724055 -5.82419
LeftToes  -1.43952e-010 7.51141e-011 -1.22592e-011
3116
root  63.903 38.941 -11.4971 -173.569 63.7792 -171.591
RightUpLeg  -12.2449 -1.94733 4.64641
RightLeg  22.5444 1.6608 0.585325
RightFoot  -9.44713 -0.085505 1.29704
RightToes  1.218e-010 1.26228e-014 -6.01869e-014
Spine  -3.50262 1.58156 10.184
Spine1  8.95398 1.46713 2.09135
HEad  22.2819 36.9839 4.71293
LeftShoulder1  0.94524 -0.36596 -19.4923
LeftArm  4.24713 9.65915 -53.1918
LeftForeArm  49.5751 -2.42263 -13.1955
LeftHand  -0.0102979 6.29462 2.66742
RightShoulder  1.80421 2.05287 27.7056
RightArm  -24.4209 12.3526 45.5217
RightForeArm  79.7925 -4.82778 3.06182
RightHand  0.525214 -9.16338 -16.7479
LeftUpLeg  -21.5844 3.51046 4.45476
LeftLeg  62.855 3.8276 8.68896
LeftFoot  1.15022 0.58963 -5.44993
LeftToes  -1.43952e-010 7.51141e-011 -1.22592e-011
3117
root  64.9987 39.0548 -11.9893 -174.364 64.5928 -172.523
RightUpLeg  -9.90309 -3.17234 3.96774
RightLeg  21.9337 3.46768 1.47437
RightFoot  -10.97 -0.0763319 0.62319
RightToes  1.218e-010 1.26228e-014 -6.01869e-014
Spine  -3.43862 2.46598 10.7005
Spine1  8.57462 2.52384 0.969342
HEad  21.1623 38.1439 4.37708
LeftShoulder1  0.825461 0.166732 -20.0836
LeftArm  4.22225 11.9297 -52.4858
LeftForeArm  49.8101 -1.68815 -13.4141
LeftHand  -0.00745829 6.42578 2.7153
RightShoulder  1.93284 2.63275 26.5565
RightArm  -22.7881 15.5228 46.957
RightForeArm  77.863 -5.0375 3.82805
RightHand  0.454356 -8.59333 -17.1106
LeftUpLeg  -23.7819 4.48384 3.41399
LeftLeg  57.4999 5.40906 9.58877
LeftFoot  -2.27799 0.37663 -4.57884
LeftToes  -1.43952e-010 7.51141e-011 -1.22592e-011
